<?xml version="1.0" encoding="UTF-8" standalone="no"?>
<!-- Created with Inkscape (http://www.inkscape.org/) -->

<svg
   width="141.64888mm"
   height="165.52591mm"
   viewBox="0 0 141.64888 165.52591"
   version="1.1"
   id="svg1"
   inkscape:version="1.4 (e7c3feb100, 2024-10-09)"
   sodipodi:docname="sunce.svg"
   xmlns:inkscape="http://www.inkscape.org/namespaces/inkscape"
   xmlns:sodipodi="http://sodipodi.sourceforge.net/DTD/sodipodi-0.dtd"
   xmlns="http://www.w3.org/2000/svg"
   xmlns:svg="http://www.w3.org/2000/svg">
  <sodipodi:namedview
     id="namedview1"
     pagecolor="#ffffff"
     bordercolor="#000000"
     borderopacity="0.25"
     inkscape:showpageshadow="2"
     inkscape:pageopacity="0.0"
     inkscape:pagecheckerboard="0"
     inkscape:deskcolor="#d1d1d1"
     inkscape:document-units="mm"
     inkscape:zoom="1.53"
     inkscape:cx="278.43137"
     inkscape:cy="337.2549"
     inkscape:window-width="1920"
     inkscape:window-height="1011"
     inkscape:window-x="0"
     inkscape:window-y="0"
     inkscape:window-maximized="1"
     inkscape:current-layer="layer1" />
  <defs
     id="defs1">
    <inkscape:path-effect
       effect="bspline"
       id="path-effect6"
       is_visible="true"
       lpeversion="1.3"
       weight="33.333333"
       steps="2"
       helper_size="0"
       apply_no_weight="true"
       apply_with_weight="true"
       only_selected="false"
       uniform="false" />
    <inkscape:path-effect
       effect="bspline"
       id="path-effect5"
       is_visible="true"
       lpeversion="1.3"
       weight="33.333333"
       steps="2"
       helper_size="0"
       apply_no_weight="true"
       apply_with_weight="true"
       only_selected="false"
       uniform="false" />
    <inkscape:path-effect
       effect="bspline"
       id="path-effect4"
       is_visible="true"
       lpeversion="1.3"
       weight="33.333333"
       steps="2"
       helper_size="0"
       apply_no_weight="true"
       apply_with_weight="true"
       only_selected="false"
       uniform="false" />
  </defs>
  <g
     inkscape:label="Layer 1"
     inkscape:groupmode="layer"
     id="layer1"
     transform="translate(-0.64532518,0.32266259)">
    <path
       style="stroke-width:3.24401;fill:#ffd42a"
       d="m 75.639973,25.338243 c -0.27458,-0.06869 -0.56838,0.174441 -0.83635,0.3041 -2.3367,0.937588 -2.62462,4.076797 -4.80905,5.198667 -2.47095,-1.092442 -3.12155,-4.684539 -6.01597,-5.127401 -2.5597,1.329322 -2.22479,4.834336 -4.25776,6.572037 -2.60211,-0.632661 -4.0117,-3.913667 -6.90943,-3.782629 -2.22415,1.84952 -1.18642,5.160413 -2.77516,7.313298 -1.72354,0.09655 -3.02739,-1.265505 -4.56186,-1.829474 -0.86072,-0.661167 -1.92879,-0.459874 -2.92248,-0.484703 -1.91664,2.245394 -0.17572,5.315544 -1.26881,7.793219 -2.63869,0.518635 -5.159953,-1.897889 -7.812251,-0.703283 -1.450888,2.52862 1.011983,5.264048 0.342171,7.888302 -2.462506,1.063569 -5.455786,-0.821998 -7.750496,0.964624 -0.875517,2.781959 2.066293,4.929235 1.967349,7.612709 -2.2022,1.51397 -5.482528,0.34925 -7.384606,2.532757 -0.262346,2.899202 3.072534,4.398462 3.516465,7.051962 -1.826939,1.95508 -5.343064,1.48353 -6.705041,4.04397 0.417482,2.86886 3.834037,3.63486 4.923053,6.07299 -1.351884,2.33551 -4.808678,2.6362 -5.745144,5.36023 0.936549,2.77911 4.583197,2.77166 6.111046,5.01815 -0.901082,2.51611 -4.25037,3.51201 -4.47636,6.41039 1.483554,2.49734 5.021469,1.75241 6.980649,3.59724 -0.345291,2.66103 -3.355977,4.323612 -3.08403,7.189802 1.981831,2.16199 5.338075,0.69491 7.631645,2.13836 0.16368,2.65284 -2.459375,4.91471 -1.525373,7.63164 2.369899,1.75748 5.287128,-0.41555 7.855013,0.45621 0.759566,2.58525 -1.319946,5.43682 0.180602,7.89786 2.732668,1.07258 5.044638,-1.596 7.721958,-1.24031 1.33824,2.34599 -0.20534,5.61661 1.85329,7.6745 2.87061,0.42484 4.63571,-2.58766 7.31329,-2.80844 1.67141,1.89991 0.93732,5.00998 2.91769,6.7383 0.25473,0.51128 0.81179,0.35393 1.23553,0.16635 2.44503,-0.45795 3.40643,-3.43863 5.7642,-4.05344 2.16098,1.60344 2.00759,5.1217 4.70449,6.26306 2.841,-0.65933 3.24809,-4.27175 5.62158,-5.5551 2.43923,1.13907 2.98739,4.61705 5.86388,5.13219 2.6728,-1.16095 2.24006,-4.8886 4.37188,-6.55301 2.61047,0.62715 3.95257,3.8321 6.86189,3.7921 2.18912,-1.87903 1.30569,-5.13116 2.78941,-7.3703 2.13339,0.0736 3.75605,1.80427 5.75463,2.34268 0.5876,-0.01 1.175207,0.0109 1.762997,0 1.8954,-2.23712 0.16018,-5.3264 1.25446,-7.81694 2.65543,-0.4414 5.17044,1.92934 7.82182,0.72222 1.39075,-2.54599 -0.96922,-5.28105 -0.35164,-7.90724 2.49533,-0.97778 5.40373,0.77482 7.76471,-0.88868 0.83128,-2.78378 -2.00795,-4.94247 -2.00538,-7.63164 2.18976,-1.5731 5.58249,-0.35202 7.43689,-2.62306 0.16919,-2.894332 -3.06097,-4.317452 -3.56397,-6.952192 1.78984,-2.02874 5.46001,-1.46109 6.72405,-4.15321 -0.52232,-2.81709 -3.85923,-3.5863 -4.92786,-6.02554 1.38192,-2.31794 4.87425,-2.57653 5.74047,-5.35546 -0.94154,-2.77266 -4.63211,-2.73616 -6.0968,-5.02284 0.93556,-2.48899 4.15174,-3.4777 4.51433,-6.32017 -1.43921,-2.562 -5.0875,-1.82166 -7.0424,-3.69702 0.46346,-2.626272 3.37498,-4.332801 3.08882,-7.180234 -1.99462,-2.098354 -5.30221,-0.701627 -7.59367,-2.086124 -0.24737,-2.670508 2.45045,-4.947165 1.50155,-7.679193 -2.38203,-1.728413 -5.28198,0.456104 -7.83119,-0.451506 -0.86808,-2.552988 1.41567,-5.431685 -0.22337,-7.864485 -2.71087,-1.095294 -5.05751,1.576686 -7.731507,1.230744 -1.25364,-2.402914 0.14639,-5.472513 -1.70119,-7.679192 l -0.11884,-0.04755 c -0.95266,0.175637 -2.01891,-0.04524 -2.79888,0.674777 -1.53154,0.670363 -2.74058,2.114447 -4.48591,2.214404 -1.77256,-2.057342 -0.97446,-5.406766 -3.28358,-7.161202 l -0.057,-0.02373 -0.01,-0.0047 c -2.882,0.241845 -4.04938,3.418574 -6.56246,4.343288 -2.11013,-1.510385 -1.98525,-4.835255 -4.40031,-6.072989 -0.0851,-0.108971 -0.17462,-0.167177 -0.26612,-0.190073 z"
       id="path1" />
    <path
       id="path2"
       style="display:inline;stroke-width:3.24401"
       d="m 75.639973,25.338243 c -0.27458,-0.06869 -0.56838,0.174441 -0.83635,0.3041 -2.3367,0.937588 -2.62462,4.076797 -4.80905,5.198667 -2.47095,-1.092442 -3.12155,-4.684539 -6.01597,-5.127401 -2.5597,1.329322 -2.22479,4.834336 -4.25776,6.572037 -2.60211,-0.632661 -4.0117,-3.913667 -6.90943,-3.782629 -2.22415,1.84952 -1.18642,5.160413 -2.77516,7.313298 -1.72354,0.09655 -3.02739,-1.265505 -4.56186,-1.829474 -0.86072,-0.661167 -1.92879,-0.459874 -2.92248,-0.484703 -1.91664,2.245394 -0.17572,5.315544 -1.26881,7.793219 -2.63869,0.518635 -5.159953,-1.897889 -7.812251,-0.703283 -1.450888,2.52862 1.011983,5.264048 0.342171,7.888302 -2.462506,1.063569 -5.455786,-0.821998 -7.750496,0.964624 -0.875517,2.781959 2.066293,4.929235 1.967349,7.612709 -2.2022,1.51397 -5.482528,0.34925 -7.384606,2.532757 -0.262346,2.899202 3.072534,4.398462 3.516465,7.051962 -1.826939,1.95508 -5.343064,1.48353 -6.705041,4.04397 0.417482,2.86886 3.834037,3.63486 4.923053,6.07299 -1.351884,2.33551 -4.808678,2.6362 -5.745144,5.36023 0.936549,2.77911 4.583197,2.77166 6.111046,5.01815 -0.901082,2.51611 -4.25037,3.51201 -4.47636,6.41039 1.483554,2.49734 5.021469,1.75241 6.980649,3.59724 -0.345291,2.66103 -3.355977,4.323612 -3.08403,7.189802 1.981831,2.16199 5.338075,0.69491 7.631645,2.13836 0.16368,2.65284 -2.459375,4.91471 -1.525373,7.63164 2.369899,1.75748 5.287128,-0.41555 7.855013,0.45621 0.759566,2.58525 -1.319946,5.43682 0.180602,7.89786 2.732668,1.07258 5.044638,-1.596 7.721958,-1.24031 1.33824,2.34599 -0.20534,5.61661 1.85329,7.6745 2.87061,0.42484 4.63571,-2.58766 7.31329,-2.80844 1.67141,1.89991 0.93732,5.00998 2.91769,6.7383 0.25473,0.51128 0.81179,0.35393 1.23553,0.16635 2.44503,-0.45795 3.40643,-3.43863 5.7642,-4.05344 2.16098,1.60344 2.00759,5.1217 4.70449,6.26306 2.841,-0.65933 3.24809,-4.27175 5.62158,-5.5551 2.43923,1.13907 2.98739,4.61705 5.86388,5.13219 2.6728,-1.16095 2.24006,-4.8886 4.37188,-6.55301 2.61047,0.62715 3.95257,3.8321 6.86189,3.7921 2.18912,-1.87903 1.30569,-5.13116 2.78941,-7.3703 2.13339,0.0736 3.75605,1.80427 5.75463,2.34268 0.5876,-0.01 1.175207,0.0109 1.762997,0 1.8954,-2.23712 0.16018,-5.3264 1.25446,-7.81694 2.65543,-0.4414 5.17044,1.92934 7.82182,0.72222 1.39075,-2.54599 -0.96922,-5.28105 -0.35164,-7.90724 2.49533,-0.97778 5.40373,0.77482 7.76471,-0.88868 0.83128,-2.78378 -2.00795,-4.94247 -2.00538,-7.63164 2.18976,-1.5731 5.58249,-0.35202 7.43689,-2.62306 0.16919,-2.894332 -3.06097,-4.317452 -3.56397,-6.952192 1.78984,-2.02874 5.46001,-1.46109 6.72405,-4.15321 -0.52232,-2.81709 -3.85923,-3.5863 -4.92786,-6.02554 1.38192,-2.31794 4.87425,-2.57653 5.74047,-5.35546 -0.94154,-2.77266 -4.63211,-2.73616 -6.0968,-5.02284 0.93556,-2.48899 4.15174,-3.4777 4.51433,-6.32017 -1.43921,-2.562 -5.0875,-1.82166 -7.0424,-3.69702 0.46346,-2.626272 3.37498,-4.332801 3.08882,-7.180234 -1.99462,-2.098354 -5.30221,-0.701627 -7.59367,-2.086124 -0.24737,-2.670508 2.45045,-4.947165 1.50155,-7.679193 -2.38203,-1.728413 -5.28198,0.456104 -7.83119,-0.451506 -0.86808,-2.552988 1.41567,-5.431685 -0.22337,-7.864485 -2.71087,-1.095294 -5.05751,1.576686 -7.731507,1.230744 -1.25364,-2.402914 0.14639,-5.472513 -1.70119,-7.679192 l -0.11884,-0.04755 c -0.95266,0.175637 -2.01891,-0.04524 -2.79888,0.674777 -1.53154,0.670363 -2.74058,2.114447 -4.48591,2.214404 -1.77256,-2.057342 -0.97446,-5.406766 -3.28358,-7.161202 l -0.057,-0.02373 -0.01,-0.0047 c -2.882,0.241845 -4.04938,3.418574 -6.56246,4.343288 -2.11013,-1.510385 -1.98525,-4.835255 -4.40031,-6.072989 -0.0851,-0.108971 -0.17462,-0.167177 -0.26612,-0.190073 z m -0.18061,0.803056 c 2.33589,1.186882 2.18994,4.429819 4.23883,5.920985 0.47082,0.716341 1.22744,-0.03559 1.81523,-0.190074 1.7902,-1.111478 2.85856,-3.470162 5.10835,-3.758813 2.14508,1.75361 1.17098,5.262669 3.28368,7.075683 2.79061,0.114021 4.47092,-3.048266 7.24672,-2.851203 l 0.005,0.0047 c 1.36141,1.76915 0.59993,4.179881 1.03589,6.220304 0.28506,0.560014 0.40323,1.630479 1.24031,1.458889 2.498277,0.297939 4.664397,-2.107735 7.161197,-1.297322 1.11929,2.522366 -1.0929,5.229472 0.0285,7.779058 2.53405,1.172169 5.31922,-0.883334 7.82651,0.323135 0.65381,2.707291 -2.18719,5.022203 -1.52538,7.712389 2.23197,1.611445 5.35546,0.216373 7.52241,1.905614 0.0975,2.782695 -3.01139,4.361587 -3.14105,7.108974 1.49806,1.8932 4.27975,1.63122 6.24881,2.7941 0.2492,0.37702 0.98881,0.61739 0.66053,1.15948 -0.77336,2.44319 -3.80296,3.38123 -4.44785,5.95427 1.34376,2.46407 4.88822,2.38379 6.13957,4.89456 -0.80003,2.11059 -3.37683,2.56118 -4.86128,4.02016 -0.3338,0.57381 -1.28637,1.17741 -0.61776,1.85798 1.02163,2.24282 4.04994,2.96385 4.69023,5.43629 -1.58551,2.31362 -5.16758,1.70652 -6.73828,4.01546 0.28598,2.75538 3.47254,4.13271 3.61149,6.904642 -2.05762,1.84805 -5.29421,0.64204 -7.4036,2.44724 -0.41289,2.7357 2.50563,4.79461 2.0956,7.52241 -2.37046,1.45061 -5.29752,-0.42088 -7.74568,0.86006 -1.01566,2.62647 1.44233,5.21192 0.46566,7.81704 -2.59132,0.9523 -5.09392,-1.51379 -7.75524,-0.75082 -1.5592,2.3196 0.34135,5.44658 -1.23074,7.77427 -2.733947,0.3007 -4.658047,-2.5528 -7.394127,-2.3665 -1.988,1.95188 -0.79,5.36686 -2.77516,7.33234 -2.78185,-0.23173 -4.07008,-3.59394 -6.83806,-3.83965 -1.76842,1.42745 -2.05229,3.83119 -3.12211,5.73091 -0.56553,0.57657 -1.20859,1.21126 -2.00528,0.47514 -1.82425,-1.40032 -2.61341,-3.91183 -4.84704,-4.81842 -2.59345,0.98062 -2.88587,4.58384 -5.47904,5.56925 -2.48577,-1.25511 -2.3037,-4.8039 -4.67589,-6.25359 -2.73893,0.44507 -3.79054,3.91091 -6.53875,4.28158 -2.14737,-1.76097 -1.17143,-5.20593 -3.23135,-7.08047 -2.69129,-0.11775 -4.34899,2.76836 -6.96644,2.86546 -0.53886,0.0736 -0.63772,-0.63091 -0.89336,-0.96471 -0.63266,-2.15877 0.18539,-4.62817 -1.08821,-6.63375 -2.65947,-0.76048 -5.07242,2.02388 -7.73621,1.21181 -1.308997,-2.46931 1.15203,-5.33715 -0.123586,-7.83607 -2.527147,-1.12389 -5.321979,1.01198 -7.769494,-0.29941 -0.591285,-2.67896 1.977436,-4.89567 1.596737,-7.58889 -2.149494,-1.74717 -5.444048,-0.28461 -7.61272,-2.03859 -0.06713,-2.79998 3.218783,-4.407012 3.11729,-7.194492 -1.860952,-2.03518 -5.240527,-1.31627 -6.985407,-3.44046 0.526548,-2.74076 4.033521,-3.66758 4.504886,-6.42941 -1.358232,-2.42039 -4.863457,-2.31969 -6.087299,-4.8233 1.083043,-2.54214 4.566916,-2.72053 5.768908,-5.21761 -0.723793,-2.66839 -4.189578,-3.39163 -4.994326,-6.04927 1.581466,-2.28281 5.021954,-1.77035 6.714552,-3.93941 0.01093,-2.79226 -3.572863,-4.19533 -3.535487,-7.013984 2.034757,-1.857244 5.371469,-0.621074 7.398833,-2.499468 0.322773,-2.752809 -2.547831,-4.760219 -2.10515,-7.489119 2.36383,-1.467258 5.312511,0.497852 7.750545,-0.864942 0.99074,-2.599518 -1.48325,-5.228921 -0.470442,-7.840761 2.640062,-0.86715 5.12455,1.619629 7.80268,0.755606 1.40464,-2.388937 -0.31982,-5.361522 1.11203,-7.717263 2.78482,-0.40185 4.71746,2.640346 7.52232,2.342775 1.87867,-2.056238 0.71892,-5.378718 2.70868,-7.327552 2.78802,0.209662 3.99017,3.575176 6.77636,3.853804 2.26414,-1.546891 1.85393,-5.143309 4.23394,-6.590979 2.64946,0.826688 3.20349,4.249675 5.826,5.174941 2.60191,-1.040579 2.88007,-4.563064 5.48373,-5.55509 z" />
    <path
       style="fill:none;stroke:#000000;stroke-width:1.274;stroke-linecap:round;stroke-opacity:1"
       d="m 20.005081,127.45173 c 3.011516,5.27015 6.023036,10.54031 11.50838,11.88471 5.485343,1.3444 13.444193,-1.23685 21.403206,-3.81815"
       id="path3"
       inkscape:path-effect="#path-effect4"
       inkscape:original-d="m 20.005081,127.45173 c 3.011518,5.27015 6.023035,10.54031 9.034552,15.81046 7.959172,-2.58135 15.918021,-5.1626 23.877034,-7.7439"
       transform="rotate(0.92638691,2386.3729,2094.7134)" />
    <path
       style="display:inline;fill:none;stroke:#000000;stroke-width:1.274;stroke-linecap:round;stroke-opacity:1"
       d="m 72.168868,75.718156 c -1.398204,2.473747 -4.194614,7.42124 -6.076822,10.110099 -1.882208,2.688859 -2.850176,3.119067 -3.387948,4.08707 -0.537772,0.968003 -0.645325,2.473731 -0.16132,3.54928 0.484004,1.075548 1.559525,1.720861 2.796413,1.774632 1.236887,0.05377 2.635063,-0.483988 3.334165,-0.752874 0.699103,-0.268885 4.893717,-21.241953 3.495512,-18.768207 z"
       id="path4"
       inkscape:path-effect="#path-effect5"
       inkscape:original-d="m 73.567073,73.24441 c -2.796409,4.947493 -5.59282,9.894985 -8.389228,14.842479 -0.968007,0.430225 -1.935975,0.860433 -2.903963,1.29065 -0.107556,1.505789 -0.215109,3.011517 -0.322663,4.517277 1.075563,0.645337 2.151084,1.29065 3.226626,1.935974 1.398233,-0.537781 2.796409,-1.075541 4.194614,-1.613312 z"
       transform="rotate(-1.5183501,31.510794,20.604135)" />
    <ellipse
       style="fill:none;stroke:#000000;stroke-width:1.274;stroke-linecap:round;stroke-opacity:1"
       id="path5"
       cx="55.263615"
       cy="69.716171"
       rx="7.744"
       ry="10.163872"
       transform="rotate(-1.5183501)" />
    <ellipse
       style="display:inline;fill:none;stroke:#000000;stroke-width:1.274;stroke-linecap:round;stroke-opacity:1"
       id="path6"
       cx="88.175201"
       cy="72.620132"
       rx="7.744"
       ry="10.163872"
       transform="rotate(-1.5183501)" />
    <ellipse
       style="fill:#000000;fill-opacity:1;stroke:none;stroke-width:1.23627;stroke-linecap:round;stroke-opacity:1"
       id="path7"
       cx="56.700718"
       cy="73.000694"
       rx="5.3905001"
       ry="5.2072253" />
    <ellipse
       style="fill:#000000;fill-opacity:1;stroke:none;stroke-width:1.23627;stroke-linecap:round;stroke-opacity:1"
       id="path8"
       cx="89.497795"
       cy="75.511429"
       rx="5.3909998"
       ry="5.2072253" />
  </g>
</svg>
